<?xml version="1.0" standalone="yes"?>

<svg version="1.1" viewBox="0.0 0.0 200.0 200.0" fill="none" stroke="none" stroke-linecap="square" stroke-miterlimit="10" xmlns="http://www.w3.org/2000/svg" xmlns:xlink="http://www.w3.org/1999/xlink"><clipPath id="p.0"><path d="m0 0l200.0 0l0 200.0l-200.0 0l0 -200.0z" clip-rule="nonzero"></path></clipPath><g clip-path="url(#p.0)"><path fill="#000000" fill-opacity="0.0" d="m0 0l200.0 0l0 200.0l-200.0 0z" fill-rule="nonzero"></path><path fill="#000000" fill-opacity="0.0" d="m38.850395 109.2336l0 0c0 -33.771996 27.37761 -61.14961 61.149605 -61.14961l0 0c16.21788 0 31.77153 6.4425316 43.239304 17.910305c11.467773 11.467773 17.910309 27.021416 17.910309 43.239304l0 0c0 33.771988 -27.377625 61.149612 -61.149612 61.149612l0 0c-33.771996 0 -61.149605 -27.377625 -61.149605 -61.149612z" fill-rule="nonzero"></path><path stroke="#6aa84f" stroke-width="1.0" stroke-linejoin="round" stroke-linecap="butt" d="m38.850395 109.2336l0 0c0 -33.771996 27.37761 -61.14961 61.149605 -61.14961l0 0c16.21788 0 31.77153 6.4425316 43.239304 17.910305c11.467773 11.467773 17.910309 27.021416 17.910309 43.239304l0 0c0 33.771988 -27.377625 61.149612 -61.149612 61.149612l0 0c-33.771996 0 -61.149605 -27.377625 -61.149605 -61.149612z" fill-rule="nonzero"></path><path fill="#000000" fill-opacity="0.0" d="m51.220444 107.66537l49.826775 50.522316l62.367455 -139.37271" fill-rule="nonzero"></path><path stroke="#6aa84f" stroke-width="4.0" stroke-linejoin="round" stroke-linecap="butt" d="m51.220444 107.66537l49.826775 50.522316l62.367455 -139.37271" fill-rule="nonzero"></path></g></svg>

