<?xml version="1.0" ?><!DOCTYPE svg  PUBLIC '-//W3C//DTD SVG 1.1//EN'  'http://www.w3.org/Graphics/SVG/1.1/DTD/svg11.dtd'><svg enable-background="new 0 0 24 24" height="24px" id="Layer_1" version="1.1" viewBox="0 0 24 24" width="24px" xml:space="preserve" xmlns="http://www.w3.org/2000/svg" xmlns:xlink="http://www.w3.org/1999/xlink"><path d="M2.91,12.84c1.342,0,2.434-1.091,2.434-2.434S4.252,7.973,2.91,7.973s-2.434,1.091-2.434,2.434S1.567,12.84,2.91,12.84z   M2.91,8.898c0.832,0,1.508,0.677,1.508,1.508c0,0.832-0.676,1.508-1.508,1.508s-1.508-0.676-1.508-1.508  C1.402,9.575,2.078,8.898,2.91,8.898z"/><path d="M12.463,8.317c1.342,0,2.435-1.092,2.435-2.434s-1.093-2.434-2.435-2.434S10.03,4.541,10.03,5.883  S11.121,8.317,12.463,8.317z M12.463,4.375c0.833,0,1.508,0.677,1.508,1.508c0,0.832-0.676,1.508-1.508,1.508  c-0.831,0-1.507-0.677-1.507-1.508C10.956,5.052,11.633,4.375,12.463,4.375z"/><path d="M21.231,7.763c-1.343,0-2.435,1.092-2.435,2.434c0,1.342,1.092,2.434,2.435,2.434c1.342,0,2.435-1.092,2.435-2.434  C23.666,8.854,22.573,7.763,21.231,7.763z M21.231,11.705c-0.831,0-1.508-0.676-1.508-1.508s0.677-1.508,1.508-1.508  c0.832,0,1.509,0.676,1.509,1.508S22.063,11.705,21.231,11.705z"/><path d="M21.351,12.823h-0.694c-0.524,0-1.003,0.181-1.39,0.475v-0.385c0-0.256-0.208-0.463-0.463-0.463h-1.936v-1.373  c0-0.823-0.246-1.477-0.73-1.944c-0.752-0.723-1.799-0.694-1.842-0.69c-0.115,0.004-0.225,0.051-0.307,0.132l-1.525,1.494  l-1.525-1.494c-0.083-0.081-0.192-0.128-0.307-0.132c-0.044-0.003-1.09-0.033-1.842,0.69C8.306,9.6,8.06,10.254,8.06,11.077v1.418  H5.338c-0.256,0-0.463,0.208-0.463,0.463v0.472c-0.388-0.293-0.866-0.474-1.389-0.474H2.791c-1.277,0-2.315,1.038-2.315,2.315v3.473  c0,0.256,0.207,0.464,0.463,0.464c0.256,0,0.463-0.208,0.463-0.464v-3.473c0-0.767,0.623-1.39,1.389-1.39h0.695  c0.766,0,1.389,0.623,1.389,1.39v0.567H4.13c-0.256,0-0.463,0.207-0.463,0.463s0.207,0.463,0.463,0.463h1.957  c0.269,0,0.488,0.219,0.488,0.487c0,0.27-0.219,0.488-0.488,0.488H4.13c-0.256,0-0.463,0.208-0.463,0.464s0.207,0.463,0.463,0.463  h0.745v1.63c0,0.256,0.207,0.463,0.463,0.463h13.466c0.255,0,0.463-0.207,0.463-0.463v-1.762h0.743c0.257,0,0.464-0.208,0.464-0.464  c0-0.257-0.207-0.463-0.464-0.463h-1.956c-0.269,0-0.487-0.219-0.487-0.488s0.219-0.488,0.487-0.488h1.956  c0.257,0,0.464-0.206,0.464-0.463c0-0.255-0.207-0.463-0.464-0.463h-0.743v-0.567c0-0.767,0.622-1.39,1.39-1.39h0.694  c0.766,0,1.39,0.623,1.39,1.39v3.473c0,0.256,0.206,0.464,0.463,0.464c0.255,0,0.463-0.208,0.463-0.464v-3.473  C23.666,13.862,22.627,12.823,21.351,12.823z M18.054,15.706c-0.779,0-1.414,0.635-1.414,1.414s0.635,1.415,1.414,1.415h0.287v1.299  H5.801v-1.167h0.286c0.78,0,1.414-0.635,1.414-1.415c0-0.779-0.634-1.413-1.414-1.413H5.801v-0.567c0-0.15-0.018-0.295-0.044-0.437  c0.027-0.06,0.044-0.122,0.044-0.192v-1.222h2.316c0.05,0.193,0.141,0.411,0.318,0.604c0.187,0.2,0.535,0.441,1.133,0.441h0.866  c0.256,0,0.463-0.207,0.463-0.463v-1.279c0-0.257-0.207-0.464-0.463-0.464s-0.463,0.207-0.463,0.464v0.815H9.568  c-0.209,0-0.361-0.048-0.45-0.142c-0.107-0.113-0.132-0.294-0.134-0.379c0.001-0.013,0.002-0.025,0.002-0.038v-1.904  c0-0.559,0.148-0.986,0.441-1.271c0.326-0.318,0.771-0.405,1.006-0.429l1.706,1.671c0.181,0.177,0.468,0.176,0.649,0l1.705-1.671  c0.236,0.024,0.681,0.111,1.007,0.429c0.293,0.285,0.44,0.713,0.44,1.271v1.904c0,0.011,0,0.023,0.002,0.034  c-0.002,0.065-0.017,0.257-0.13,0.38c-0.091,0.096-0.242,0.145-0.454,0.145h-0.525v-0.739c0-0.256-0.207-0.463-0.463-0.463  s-0.463,0.207-0.463,0.463v1.203c0,0.256,0.207,0.463,0.463,0.463h0.988c0.598,0,0.946-0.241,1.133-0.441  c0.191-0.208,0.287-0.446,0.334-0.648h1.515v1.717c0,0.006,0.002,0.01,0.002,0.015c0,0.011-0.002,0.021-0.002,0.03v0.567H18.054z"/></svg>