<?xml version="1.0" standalone="yes"?>

<svg version="1.1" viewBox="0.0 0.0 200.0 200.0" fill="none" stroke="none" stroke-linecap="square" stroke-miterlimit="10" xmlns="http://www.w3.org/2000/svg" xmlns:xlink="http://www.w3.org/1999/xlink"><clipPath id="p.0"><path d="m0 0l200.0 0l0 200.0l-200.0 0l0 -200.0z" clip-rule="nonzero"></path></clipPath><g clip-path="url(#p.0)"><path fill="#000000" fill-opacity="0.0" d="m0 0l200.0 0l0 200.0l-200.0 0z" fill-rule="nonzero"></path><path fill="#000000" fill-opacity="0.0" d="m0 0l92.69292 0l0 104.18898l-92.69292 0z" fill-rule="nonzero"></path><path fill="#6aa84f" d="m44.02224 94.049995l0 -7.03125q-5.265625 -0.671875 -8.578125 -2.375q-3.296875 -1.703125 -5.703125 -5.484375q-2.390625 -3.796875 -2.78125 -9.265625l7.0625 -1.328125q0.828125 5.671875 2.890625 8.328125q2.96875 3.75 7.109375 4.171875l0 -22.375q-4.328125 -0.828125 -8.859375 -3.359375q-3.359375 -1.875 -5.1875 -5.1875q-1.8125 -3.328125 -1.8125 -7.546875q0 -7.5 5.3125 -12.15625q3.5625 -3.125 10.546875 -3.828125l0 -3.359375l4.140625 0l0 3.359375q6.140625 0.59375 9.734375 3.59375q4.609375 3.828125 5.546875 10.515625l-7.265625 1.09375q-0.625 -4.140625 -2.609375 -6.34375q-1.96875 -2.21875 -5.40625 -2.921875l0 20.28125q5.3125 1.328125 7.03125 2.0625q3.28125 1.453125 5.34375 3.53125q2.078125 2.0625 3.1875 4.921875q1.125 2.84375 1.125 6.15625q0 7.3125 -4.65625 12.203125q-4.640625 4.875 -12.03125 5.234375l0 7.109375l-4.140625 0zm0 -61.578125q-4.09375 0.625 -6.46875 3.28125q-2.359375 2.65625 -2.359375 6.296875q0 3.59375 2.015625 6.015625q2.015625 2.421875 6.8125 3.859375l0 -19.453125zm4.140625 48.59375q4.109375 -0.5 6.78125 -3.546875q2.671875 -3.046875 2.671875 -7.546875q0 -3.828125 -1.890625 -6.140625q-1.890625 -2.328125 -7.5625 -4.171875l0 21.40625z" fill-rule="nonzero"></path><path fill="#000000" fill-opacity="0.0" d="m62.37008 81.88189l118.45669 102.42519" fill-rule="nonzero"></path><path stroke="#000000" stroke-width="8.0" stroke-linejoin="round" stroke-linecap="butt" d="m62.37008 81.88189l82.14765 71.03008" fill-rule="evenodd"></path><path fill="#000000" stroke="#000000" stroke-width="8.0" stroke-linecap="butt" d="m135.875 162.90744l36.105057 13.750214l-18.81961 -33.74115z" fill-rule="evenodd"></path></g></svg>

