<svg xmlns:dc="http://purl.org/dc/elements/1.1/" xmlns:cc="http://creativecommons.org/ns#" xmlns:rdf="http://www.w3.org/1999/02/22-rdf-syntax-ns#" xmlns:svg="http://www.w3.org/2000/svg" xmlns="http://www.w3.org/2000/svg" xmlns:sodipodi="http://sodipodi.sourceforge.net/DTD/sodipodi-0.dtd" xmlns:inkscape="http://www.inkscape.org/namespaces/inkscape" version="1.1" x="0px" y="0px" viewBox="0 0 99.986488 100"><g transform="translate(-92.936526,-38.433201)"><path d="m 94.92874,78.074641 0.503112,11.61338 16.812418,11.790169 -0.17398,-13.919769 z m 36.45894,-13.284771 11.7461,4.249052 -31.07884,18.561289 -17.115933,-9.54119 z m 11.78013,4.288585 0.005,7.116766 -30.92822,25.223859 -0.18643,-13.832939" style="" fill="#ffffff" stroke="#000000" stroke-width="4.0114665" stroke-linecap="butt" stroke-linejoin="round" stroke-miterlimit="4" stroke-opacity="1" stroke-dasharray="none"></path><g transform="matrix(0.63930418,0,0,0.59611206,-171.50391,-359.75085)"><path transform="translate(112.46215,104.97153)" d="m 451.9643,640.48718 c 0,24.31039 -19.42765,44.01786 -43.39286,44.01786 -23.96521,0 -43.39285,-19.70747 -43.39285,-44.01786 0,-24.31039 19.42764,-44.01785 43.39285,-44.01785 23.96521,0 43.39286,19.70746 43.39286,44.01785 z" style="" fill="#ffffff" fill-opacity="1"></path><g transform="translate(110.67644,105.50724)"><g><path style="" d="m 410.35738,689.95402 c -27.019,0 -48.999,-21.981 -48.999,-49 0,-27.018 21.98,-49 48.999,-49 27.021,0 49.003,21.982 49.003,49 0,27.019 -21.982,49 -49.003,49 l 0,0 z m 0,-87.813 c -21.402,0 -38.813,17.412 -38.813,38.813 0,21.401 17.412,38.813 38.813,38.813 21.405,0 38.817,-17.412 38.817,-38.813 0,-21.401 -17.413,-38.813 -38.817,-38.813 l 0,0 z" fill="#000000" fill-opacity="1"></path></g></g><path d="m 545.05782,756.47726 h -33.211 v -31.39 c 0,-3.383 2.743,-6.125 6.125,-6.125 3.382,0 6.127,2.742 6.127,6.125 v 19.141 h 20.959 c 3.382,0 6.125,2.743 6.125,6.125 0,3.381 -2.743,6.124 -6.125,6.124 z"></path></g></g></svg>