<?xml version="1.0" encoding="utf-8"?><!DOCTYPE svg PUBLIC "-//W3C//DTD SVG 1.1//EN" "http://www.w3.org/Graphics/SVG/1.1/DTD/svg11.dtd"><svg version="1.1" xmlns="http://www.w3.org/2000/svg" xmlns:xlink="http://www.w3.org/1999/xlink" x="0px" y="0px" viewBox="0 0 100 66.213" enable-background="new 0 0 100 66.213" xml:space="preserve"><g><path fill="#010101" d="M79.196,0.688l-6.944,6.944l1.214,1.215c0.003,0,0.003,0,0.003,0.001l15.757,15.757
		c1.024,1.023,2.386,1.587,3.829,1.587c1.447,0,2.81-0.564,3.831-1.588L100,21.49L79.196,0.688z"></path><path fill="#010101" d="M75.521,40.84l-1.266-1.267l-1.269-1.268l-3.117-3.116c-0.501-0.505-1.171-0.78-1.882-0.78
		c-0.71,0-1.379,0.275-1.88,0.78c-1.038,1.034-1.038,2.723,0,3.76l3.117,3.118l1.269,1.268l1.267,1.268l1.95,1.947
		c0.502,0.505,1.171,0.78,1.881,0.78c0.711,0,1.378-0.276,1.881-0.78c1.038-1.034,1.038-2.722,0-3.759L75.521,40.84z"></path><path fill="#010101" d="M69.227,47.137l-1.266-1.268l-1.266-1.267l-3.119-3.119c-0.503-0.502-1.17-0.779-1.883-0.779
		c-0.71,0-1.377,0.277-1.879,0.779c-1.037,1.035-1.037,2.723,0,3.76l3.119,3.119L64.2,49.63l1.267,1.267l1.951,1.948
		c0.501,0.502,1.172,0.779,1.88,0.779c0.71,0,1.38-0.274,1.882-0.779c1.036-1.035,1.034-2.723,0-3.76L69.227,47.137z"></path><path fill="#010101" d="M64.883,55.379l-1.951-1.95l-1.266-1.268l-1.268-1.267l-3.119-3.119c-0.5-0.5-1.17-0.779-1.88-0.779
		c-0.712,0-1.379,0.277-1.881,0.779c-0.502,0.503-0.778,1.171-0.778,1.881c0,0.708,0.273,1.375,0.776,1.88c0.001,0,0.001,0,0.002,0
		l3.118,3.119l1.268,1.267l1.266,1.267l1.951,1.951c0.503,0.505,1.17,0.781,1.882,0.781c0.71,0,1.378-0.276,1.88-0.781
		c0.503-0.502,0.78-1.17,0.78-1.88s-0.277-1.376-0.779-1.878C64.886,55.382,64.886,55.382,64.883,55.379z"></path><path fill="#010101" d="M56.638,59.723l-1.266-1.267l-1.266-1.265l-3.119-3.121c-0.505-0.5-1.172-0.78-1.882-0.78
		c-0.709,0-1.376,0.277-1.879,0.78c-1.037,1.036-1.037,2.725,0,3.763l3.118,3.117l1.267,1.269l1.267,1.267l1.951,1.949
		c0.501,0.502,1.169,0.778,1.88,0.778c0.713,0,1.381-0.273,1.881-0.778c1.035-1.036,1.035-2.724,0-3.761L56.638,59.723z"></path><path fill="#010101" d="M66.948,14.399c-2.259,0-4.381-0.879-5.976-2.476c-0.92-0.919-2.145-1.425-3.444-1.425
		c-1.303,0-2.524,0.507-3.444,1.426l-1.206,1.207l13.175,13.175c0.336,0.336,0.527,0.796,0.525,1.273
		c0,0.477-0.193,0.932-0.531,1.269l-3.928,3.878c-1.598,1.571-3.709,2.44-5.95,2.44c-2.262,0-4.388-0.881-5.987-2.48l-5.551-5.549
		c-0.78-0.78-1.814-1.208-2.916-1.208c-0.869,0-1.715,0.285-2.414,0.786L26.445,39.568l-0.002,0.002l-2.536,2.537
		c-1.038,1.035-1.038,2.723,0,3.76c0.502,0.5,1.169,0.779,1.881,0.779c0.711,0,1.378-0.276,1.881-0.779c0.699-0.7,1.833-0.7,2.532,0
		c0.351,0.35,0.526,0.807,0.526,1.265c0,0.461-0.175,0.919-0.526,1.268c-1.036,1.037-1.036,2.726,0,3.762
		c0.504,0.5,1.171,0.78,1.882,0.78c0.71,0,1.377-0.277,1.879-0.78c0.701-0.7,1.835-0.7,2.534,0c0.35,0.35,0.525,0.808,0.525,1.269
		c0,0.458-0.175,0.915-0.525,1.267c-0.503,0.5-0.779,1.17-0.779,1.882c0,0.71,0.276,1.378,0.779,1.88
		c0.503,0.5,1.17,0.778,1.881,0.778c0.71,0,1.377-0.278,1.88-0.778c0.701-0.7,1.835-0.7,2.535,0c0.35,0.35,0.525,0.807,0.525,1.265
		c0,0.46-0.175,0.918-0.525,1.267c-1.037,1.038-1.037,2.725,0,3.763c0.502,0.503,1.169,0.779,1.879,0.779
		c0.712,0,1.378-0.276,1.883-0.779l1.262-1.264l-3.119-3.119c-2.435-2.435-2.435-6.394,0-8.829c1.177-1.178,2.745-1.828,4.414-1.828
		c0.017,0,0.034,0.002,0.054,0.002c0-0.021-0.002-0.034-0.002-0.055c0-1.668,0.648-3.237,1.826-4.414
		c1.179-1.176,2.749-1.828,4.415-1.828c0.021,0,0.037,0.003,0.059,0.003c-0.015-1.619,0.59-3.24,1.822-4.469
		c1.18-1.181,2.745-1.828,4.413-1.828c0.02,0,0.038,0.002,0.059,0.002c-0.017-1.616,0.59-3.24,1.822-4.468
		c1.182-1.181,2.748-1.829,4.413-1.829c1.668,0,3.235,0.647,4.414,1.829l3.116,3.116l9.901-9.901L72.156,12.604
		C70.675,13.769,68.859,14.399,66.948,14.399z"></path><path fill="#010101" d="M36.241,24.619c0.215-0.216,0.446-0.415,0.687-0.602c1.194-0.944,2.656-1.52,4.175-1.641
		c0.198-0.016,0.396-0.032,0.595-0.032c0.602,0,1.189,0.075,1.761,0.208c1.393,0.321,2.668,1.018,3.701,2.049l5.551,5.551
		c0.922,0.922,2.148,1.432,3.453,1.432c1.291,0,2.511-0.5,3.431-1.409l2.645-2.613L50.343,15.665l-1.268-1.266l-1.267-1.268
		l-1.894-1.895c-0.92-0.921-2.144-1.427-3.442-1.427c-1.302,0-2.525,0.507-3.444,1.427c-1.597,1.597-3.72,2.475-5.977,2.475
		c-1.913,0-3.729-0.63-5.208-1.793L14.578,25.182L25.164,35.77L36.241,24.619z"></path><path fill="#010101" d="M26.534,8.161l1.216-1.217L20.806,0L0,20.804l3.114,3.114c1.024,1.022,2.383,1.586,3.83,1.586
		c1.447,0,2.81-0.562,3.83-1.584L26.531,8.162C26.532,8.161,26.534,8.161,26.534,8.161z"></path></g></svg>